<?xml version="1.0" encoding="UTF-8" standalone="no"?>
<!-- Created with Inkscape (http://www.inkscape.org/) -->

<svg
   width="40"
   height="40"
   version="1.1"
   viewBox="0 0 10.583 10.583"
   id="svg28"
   sodipodi:docname="litter.svg"
   inkscape:version="1.1.1 (eb90963e84, 2021-10-02)"
   xmlns:inkscape="http://www.inkscape.org/namespaces/inkscape"
   xmlns:sodipodi="http://sodipodi.sourceforge.net/DTD/sodipodi-0.dtd"
   xmlns="http://www.w3.org/2000/svg"
   xmlns:svg="http://www.w3.org/2000/svg">
  <defs
     id="defs32" />
  <sodipodi:namedview
     id="namedview30"
     pagecolor="#505050"
     bordercolor="#ffffff"
     borderopacity="1"
     inkscape:pageshadow="0"
     inkscape:pageopacity="0"
     inkscape:pagecheckerboard="1"
     showgrid="false"
     inkscape:zoom="12.375"
     inkscape:cx="11.838384"
     inkscape:cy="24.767677"
     inkscape:window-width="1366"
     inkscape:window-height="704"
     inkscape:window-x="0"
     inkscape:window-y="27"
     inkscape:window-maximized="1"
     inkscape:current-layer="svg28"
     inkscape:snap-global="true"
     inkscape:snap-nodes="false" />
  <circle
     cx="5.3207102"
     cy="5.3017101"
     r="4.7623501"
     fill="#32bf38"
     id="circle2"
     style="stroke-width:1.01148;fill:#096caf;fill-opacity:1" />
  <path
     style="fill:none;stroke:#000000;stroke-width:0.3968625;stroke-linecap:round;stroke-linejoin:round;stroke-opacity:1;stroke-miterlimit:4;stroke-dasharray:none"
     d="M 2.5562422,6.3358143 3.2440986,8.9029294 H 4.4586513 L 5.1412645,6.3542792"
     id="path11929"
     sodipodi:nodetypes="cccc" />
  <path
     style="fill:none;stroke:#000000;stroke-width:0.396863;stroke-linecap:round;stroke-linejoin:round;stroke-miterlimit:4;stroke-dasharray:none;stroke-opacity:1"
     d="M 7.1776435,5.0402042 7.1044016,8.9029294 H 5.8898486 L 5.9186446,4.458343 5.1706503,5.1752173 c 0,0 -1.1973388,0.00437 -1.5200811,0.00628 -0.3227424,0.00191 -0.3389671,-0.6143156 -1.17e-5,-0.6125129 0.3389553,0.0018 1.0998632,-0.017747 1.0998632,-0.017747 l 1.0280997,-1.1099502 1.629626,-0.00999 c 0,0 0.288186,0.8242738 0.4600242,1.6286297 0.113832,0.5523908 0.1334599,0.5683132 0.317633,1.214977 0.025684,0.1436106 -0.077315,0.268342 -0.1622705,0.302996 C 7.9283065,6.6167435 7.763948,6.5074998 7.7027261,6.3817628 7.5280257,6.0229646 7.3001435,5.4550512 7.1776435,5.0402042 Z"
     id="path12064"
     sodipodi:nodetypes="ccccczzcccccssc" />
  <circle
     style="fill:none;fill-opacity:1;stroke:#000000;stroke-width:0.3968625;stroke-linecap:round;stroke-miterlimit:4;stroke-dasharray:none;stroke-opacity:1"
     id="path12624"
     cx="6.611187"
     cy="2.2488294"
     r="0.58085436" />
  <rect
     style="fill:none;fill-opacity:1;stroke:#000000;stroke-width:0.3968625;stroke-linecap:round;stroke-miterlimit:4;stroke-dasharray:none;stroke-opacity:1;stroke-linejoin:round"
     id="rect13642"
     width="0.74160433"
     height="0.74160433"
     x="0.53174651"
     y="7.1676197"
     transform="rotate(-23.627908)" />
</svg>
