<?xml version="1.0" encoding="UTF-8" standalone="no"?>
<!-- Created with Inkscape (http://www.inkscape.org/) -->

<svg
   width="40"
   height="40"
   version="1.1"
   viewBox="0 0 10.583 10.583"
   id="svg28"
   sodipodi:docname="new-marker.svg"
   inkscape:version="1.1.1 (eb90963e84, 2021-10-02)"
   xmlns:inkscape="http://www.inkscape.org/namespaces/inkscape"
   xmlns:sodipodi="http://sodipodi.sourceforge.net/DTD/sodipodi-0.dtd"
   xmlns="http://www.w3.org/2000/svg"
   xmlns:svg="http://www.w3.org/2000/svg">
  <defs
     id="defs32" />
  <sodipodi:namedview
     id="namedview30"
     pagecolor="#505050"
     bordercolor="#ffffff"
     borderopacity="1"
     inkscape:pageshadow="0"
     inkscape:pageopacity="0"
     inkscape:pagecheckerboard="1"
     showgrid="false"
     inkscape:zoom="12.375"
     inkscape:cx="20"
     inkscape:cy="20"
     inkscape:window-width="1366"
     inkscape:window-height="704"
     inkscape:window-x="0"
     inkscape:window-y="27"
     inkscape:window-maximized="1"
     inkscape:current-layer="svg28"
     inkscape:snap-nodes="true"
     inkscape:snap-global="false"
     inkscape:snap-bbox="true"
     inkscape:bbox-nodes="true"
     inkscape:snap-bbox-edge-midpoints="true"
     inkscape:snap-bbox-midpoints="true" />
  <path
     id="path2092"
     style="fill:#41bbf5;fill-opacity:1;stroke:#000000;stroke-width:0.396685;stroke-linecap:butt;stroke-linejoin:miter;stroke-miterlimit:4;stroke-dasharray:none;stroke-opacity:1"
     d="M 5.143291,0.7641116 C 5.0262379,0.7652403 4.9079289,0.7739809 4.7868941,0.7909705 4.3027551,0.8589289 3.7760542,1.0411331 3.3571744,1.314719 2.9382945,1.5883049 2.5913881,1.9914244 2.3587465,2.3456873 2.1261048,2.6999505 2.0287079,2.9951941 1.9532804,3.3652924 c -0.075426,0.3700984 -0.03409,1.1936714 -0.03409,1.1936714 0,0 0.140803,1.0503784 0.6575265,1.9255764 0.4384104,0.7425553 0.8717348,1.2832056 1.1508005,1.6337439 0.715305,0.8985061 1.4483143,1.6817777 1.4483143,1.6817777 0,0 0.7330093,-0.7832716 1.4483142,-1.6817777 0.2790656,-0.3505383 0.7118735,-0.8911886 1.150284,-1.6337439 0.5167235,-0.875198 0.6580429,-1.9255764 0.6580429,-1.9255764 0,0 0.037803,-0.8402433 -0.038739,-1.2179477 C 8.3171918,2.963312 8.1766254,2.6339849 7.9908505,2.3508527 7.8050757,2.0677203 7.686261,1.8928929 7.3927235,1.6256624 7.0991862,1.3584318 6.6528309,1.0627234 6.1840732,0.926298 5.8325049,0.823979 5.4944507,0.7607256 5.143291,0.7641116 Z M 5.162402,2.078648 A 1.9693138,1.9693138 0 0 1 7.1318823,4.0481282 1.9693138,1.9693138 0 0 1 5.1624022,6.0170921 1.9693138,1.9693138 0 0 1 3.1929218,4.0481282 1.9693138,1.9693138 0 0 1 5.162402,2.078648 Z" />
</svg>
