<?xml version="1.0" encoding="UTF-8"?>
<!-- Created with Inkscape (http://www.inkscape.org/) -->
<svg width="40" height="40" version="1.1" viewBox="0 0 10.583 10.583" xmlns="http://www.w3.org/2000/svg">
 <path d="m5.1433 0.76411c-0.11705 0.0011287-0.23536 0.0098693-0.3564 0.026859-0.48414 0.067958-1.0108 0.25016-1.4297 0.52375-0.41888 0.27359-0.76579 0.67671-0.99843 1.031-0.23264 0.35426-0.33004 0.64951-0.40547 1.0196-0.075426 0.3701-0.03409 1.1937-0.03409 1.1937s0.1408 1.0504 0.65753 1.9256c0.43841 0.74256 0.87173 1.2832 1.1508 1.6337 0.7153 0.89851 1.4483 1.6818 1.4483 1.6818s0.73301-0.78327 1.4483-1.6818c0.27907-0.35054 0.71187-0.89119 1.1503-1.6337 0.51672-0.8752 0.65804-1.9256 0.65804-1.9256s0.037803-0.84024-0.038739-1.2179c-0.076542-0.3777-0.21711-0.70703-0.40288-0.99016-0.18577-0.28313-0.30459-0.45796-0.59813-0.72519-0.29354-0.26723-0.73989-0.56294-1.2087-0.69936-0.35157-0.10232-0.68962-0.16557-1.0408-0.16219zm0.019111 1.3145a1.9693 1.9693 0 0 1 1.9695 1.9695 1.9693 1.9693 0 0 1-1.9695 1.969 1.9693 1.9693 0 0 1-1.9695-1.969 1.9693 1.9693 0 0 1 1.9695-1.9695z" fill="#329f5b" stroke="#000" stroke-width=".39668"/>
</svg>
