<?xml version="1.0" encoding="UTF-8" standalone="no"?>
<!-- Created with Inkscape (http://www.inkscape.org/) -->

<svg
   width="40"
   height="40"
   version="1.1"
   viewBox="0 0 10.583 10.583"
   id="svg28"
   sodipodi:docname="plant.svg"
   inkscape:version="1.1.1 (eb90963e84, 2021-10-02)"
   xmlns:inkscape="http://www.inkscape.org/namespaces/inkscape"
   xmlns:sodipodi="http://sodipodi.sourceforge.net/DTD/sodipodi-0.dtd"
   xmlns="http://www.w3.org/2000/svg"
   xmlns:svg="http://www.w3.org/2000/svg">
  <defs
     id="defs32" />
  <sodipodi:namedview
     id="namedview30"
     pagecolor="#505050"
     bordercolor="#ffffff"
     borderopacity="1"
     inkscape:pageshadow="0"
     inkscape:pageopacity="0"
     inkscape:pagecheckerboard="1"
     showgrid="false"
     inkscape:zoom="12.375"
     inkscape:cx="20"
     inkscape:cy="20"
     inkscape:window-width="1366"
     inkscape:window-height="704"
     inkscape:window-x="0"
     inkscape:window-y="27"
     inkscape:window-maximized="1"
     inkscape:current-layer="svg28" />
  <circle
     cx="5.3207102"
     cy="5.3017101"
     r="4.7623501"
     fill="#32bf38"
     id="circle2"
     style="stroke-width:1.01148;fill:#27c736;fill-opacity:1" />
  <g
     fill="none"
     stroke="#000000"
     id="g26"
     transform="matrix(1.0114797,0,0,1.0114797,-0.07128551,-0.0710674)">
    <g
       id="g20">
      <g
         stroke-width="0.25903"
         id="g16">
        <path
           d="m 7.0585,6.1813 c 0,0 -0.058355,0.80086 -0.16208,1.1654 C 6.79269,7.7112 6.56506,8.3684 6.56506,8.3684 h -2.522 c 0,0 -0.22764,-0.65715 -0.33136,-1.0217 C 3.60797,6.9822 3.54087,6.1813 3.54087,6.1813 Z"
           id="path4" />
        <path
           d="m 5.3278,6.1646 c 0,0 0.62557,-1.2481 1.0377,-1.5735 C 6.7776,4.26578 7.11724,4.15756 7.5707,4.09252 7.73054,4.069592 7.96633,4.10719 8.20466,4.16549 8.32061,4.193852 8.64024,4.34133 8.83375,4.51316 9.00034,4.6611 9.29079,4.92579 9.30109,5.21548 9.314789,5.60079 9.3009366,5.90611 9.288615,6.23858 9.277948,6.52639 9.261572,6.62548 9.242151,6.85248 9.196293,7.3885 7.578751,4.12828 7.578751,4.12828"
           id="path6" />
        <path
           d="m 5.3278,6.1646 c 0,0 -0.12673,-1.7761 -0.46545,-2.5849 C 4.72985,3.26332 4.54864,2.7863 4.1833,2.4583 3.93373,2.23425 3.57566,1.91497 3.1582,1.92773 3.03829,1.9313953 2.90641,1.966483 2.76942,2.02958 2.63243,2.092673 2.49032,2.18377 2.34997,2.29946 c -0.17246,0.14215 0.45561,0.098055 1.0949,0.37548 0.69759,0.30272 1.4201,0.92209 1.4201,0.92209"
           id="path8" />
        <path
           d="m 5.3278,6.1646 c 0,0 -0.56898,-1.066 -0.8811,-1.488 C 4.18465,4.32226 4.07743,4.12711 3.83302,3.99528 3.58856,3.86342 2.88908,3.83858 2.58772,3.931029 2.31075,4.016011 2.11715,4.246669 1.95607,4.500119 c -0.38434,0.60474 -0.00314,1.3943 0.068592,1.9969 0.025872,0.21734 1.2459,-2.6087 1.2459,-2.6087"
           id="path10" />
        <path
           d="M 5.3278,6.1646 5.351497,2.0729 5.331153,1.36964 c 0,0 -0.51968,0.81512 -0.5116,1.2503 0.00808,0.43519 0.5204,1.1482 0.5204,1.1482"
           id="path12" />
        <path
           d="m 5.3278,6.1646 c 0,0 0.30472,-1.7716 0.55589,-2.4291 C 5.975133,3.49611 6.15303,3.03449 6.45374,2.73699 6.61763,2.57485 7.01411,2.3336 7.48204,2.07839 8.08544,1.74933 7.58315,2.52133 6.94307,3.09099 6.4886,3.4955 5.89367,3.72153 5.89367,3.72153"
           id="path14" />
      </g>
      <path
         d="m 6.5643,6.6717 c 0,0 -0.045775,0.40229 -0.12714,0.58539 -0.081368,0.1831 -0.25993,0.5132 -0.25993,0.5132"
         stroke-width="0.1626"
         id="path18" />
    </g>
    <path
       d="M 1.9707,6.1176 2.38013,4.0457"
       stroke-width="0.26458px"
       id="path22" />
    <path
       d="M 8.4943,4.3173 C 9.14928,6.8358 9.14928,6.8428 9.14928,6.8428"
       stroke-width="0.26458px"
       id="path24" />
  </g>
</svg>
