<?xml version="1.0" encoding="UTF-8"?>
<!-- Created with Inkscape (http://www.inkscape.org/) -->
<svg width="40" height="40" version="1.1" viewBox="0 0 10.583 10.583" xmlns="http://www.w3.org/2000/svg">
 <circle cx="5.3308" cy="5.3118" r="4.7083" fill="#32bf38"/>
 <g fill="none" stroke="#000">
  <g>
   <g stroke-width=".25903">
    <path d="m7.0585 6.1813s-0.058355 0.80086-0.16208 1.1654c-0.10373 0.3645-0.33136 1.0217-0.33136 1.0217h-2.522s-0.22764-0.65715-0.33136-1.0217c-0.10373-0.3645-0.17083-1.1654-0.17083-1.1654z"/>
    <path d="m5.3278 6.1646s0.62557-1.2481 1.0377-1.5735c0.4121-0.32532 0.75174-0.43354 1.2052-0.49858 0.15984-0.022928 0.39563 0.01467 0.63396 0.07297 0.11595 0.028362 0.43558 0.17584 0.62909 0.34767 0.16659 0.14794 0.45704 0.41263 0.46734 0.70232 0.013699 0.38531-1.534e-4 0.69063-0.012475 1.0231-0.010667 0.28781-0.027043 0.3869-0.046464 0.6139-0.045858 0.53602-1.6634-2.7242-1.6634-2.7242"/>
    <path d="m5.3278 6.1646s-0.12673-1.7761-0.46545-2.5849c-0.1325-0.31638-0.31371-0.7934-0.67905-1.1214-0.24957-0.22405-0.60764-0.54333-1.0251-0.53057-0.11991 0.0036653-0.25179 0.038753-0.38878 0.10185-0.13699 0.063093-0.2791 0.15419-0.41945 0.26988-0.17246 0.14215 0.45561 0.098055 1.0949 0.37548 0.69759 0.30272 1.4201 0.92209 1.4201 0.92209"/>
    <path d="m5.3278 6.1646s-0.56898-1.066-0.8811-1.488c-0.26205-0.35434-0.36927-0.54949-0.61368-0.68132-0.24446-0.13186-0.94394-0.1567-1.2453-0.064251-0.27697 0.084982-0.47057 0.31564-0.63165 0.56909-0.38434 0.60474-0.00314 1.3943 0.068592 1.9969 0.025872 0.21734 1.2459-2.6087 1.2459-2.6087"/>
    <path d="m5.3278 6.1646 0.023697-4.0917-0.020344-0.70326s-0.51968 0.81512-0.5116 1.2503c0.00808 0.43519 0.5204 1.1482 0.5204 1.1482"/>
    <path d="m5.3278 6.1646s0.30472-1.7716 0.55589-2.4291c0.091443-0.23939 0.26934-0.70101 0.57005-0.99851 0.16389-0.16214 0.56037-0.40339 1.0283-0.6586 0.6034-0.32906 0.10111 0.44294-0.53897 1.0126-0.45447 0.40451-1.0494 0.63054-1.0494 0.63054"/>
   </g>
   <path d="m6.5643 6.6717s-0.045775 0.40229-0.12714 0.58539c-0.081368 0.1831-0.25993 0.5132-0.25993 0.5132" stroke-width=".1626"/>
  </g>
  <path d="m1.9707 6.1176 0.40943-2.0719" stroke-width=".26458px"/>
  <path d="m8.4943 4.3173c0.65498 2.5185 0.65498 2.5255 0.65498 2.5255" stroke-width=".26458px"/>
 </g>
</svg>
